<svg width="156" height="118" viewBox="0 0 156 118" fill="none" xmlns="http://www.w3.org/2000/svg">
<rect width="156" height="118" fill="white"/>
<path d="M16 43L18.125 67.75L27.9375 71L37.8125 67.75L40 43H16ZM35.25 51H23.75L24 54.125H35L34.125 63.375L28 65.0625H27.9375L21.75 63.375L21.375 58.625H24.375L24.625 61L27.9375 61.9375L31.3125 61L31.6875 57.125H21.25L20.4375 48.0625H35.5L35.25 51Z" fill="#2A7AE4"/>
<path d="M26.736 86.64V98H24.544V93.152H19.392V98H17.184V86.64H19.392V91.232H24.544V86.64H26.736ZM33.9219 97.568C33.6339 97.696 33.2819 97.824 32.8659 97.952C32.4499 98.08 32.0125 98.144 31.5539 98.144C31.2552 98.144 30.9725 98.1067 30.7059 98.032C30.4499 97.9573 30.2205 97.84 30.0179 97.68C29.8259 97.5093 29.6712 97.296 29.5539 97.04C29.4365 96.7733 29.3779 96.4533 29.3779 96.08V91.264H28.2739V89.616H29.3779V86.896H31.5219V89.616H33.2819V91.264H31.5219V95.36C31.5219 95.6587 31.5965 95.872 31.7459 96C31.9059 96.1173 32.0979 96.176 32.3219 96.176C32.5459 96.176 32.7645 96.1387 32.9779 96.064C33.1912 95.9893 33.3619 95.9253 33.4899 95.872L33.9219 97.568ZM48.0625 98H45.9185V93.296C45.9185 92.624 45.8012 92.1333 45.5665 91.824C45.3425 91.5147 45.0278 91.36 44.6225 91.36C44.1958 91.36 43.7958 91.5253 43.4225 91.856C43.0492 92.176 42.7825 92.5973 42.6225 93.12V98H40.4785V93.296C40.4785 92.624 40.3612 92.1333 40.1265 91.824C39.9025 91.5147 39.5878 91.36 39.1825 91.36C38.7665 91.36 38.3665 91.52 37.9825 91.84C37.6092 92.16 37.3425 92.5813 37.1825 93.104V98H35.0385V89.616H36.9745V91.168C37.2838 90.624 37.7052 90.208 38.2385 89.92C38.7825 89.6213 39.4012 89.472 40.0945 89.472C40.7985 89.472 41.3425 89.6427 41.7265 89.984C42.1105 90.3253 42.3558 90.7467 42.4625 91.248C42.8038 90.672 43.2358 90.2347 43.7585 89.936C44.2812 89.6267 44.8785 89.472 45.5505 89.472C46.0625 89.472 46.4838 89.568 46.8145 89.76C47.1452 89.952 47.4012 90.2027 47.5825 90.512C47.7638 90.8213 47.8865 91.1733 47.9505 91.568C48.0252 91.9627 48.0625 92.3627 48.0625 92.768V98ZM49.9131 86.32H52.0571V95.312C52.0571 95.6213 52.1318 95.8613 52.2811 96.032C52.4305 96.2027 52.6438 96.288 52.9211 96.288C53.0491 96.288 53.1878 96.2667 53.3371 96.224C53.4971 96.1813 53.6465 96.128 53.7851 96.064L54.0731 97.696C53.7851 97.8347 53.4491 97.9413 53.0651 98.016C52.6811 98.0907 52.3345 98.128 52.0251 98.128C51.3531 98.128 50.8305 97.952 50.4571 97.6C50.0945 97.2373 49.9131 96.7253 49.9131 96.064V86.32ZM62.015 92.896C62.5483 92.896 63.0443 92.9867 63.503 93.168C63.9617 93.3387 64.3563 93.584 64.687 93.904C65.0177 94.224 65.2737 94.608 65.455 95.056C65.647 95.504 65.743 96 65.743 96.544C65.743 97.12 65.6363 97.6427 65.423 98.112C65.2203 98.5813 64.9323 98.9813 64.559 99.312C64.1857 99.6533 63.743 99.9147 63.231 100.096C62.719 100.288 62.1643 100.384 61.567 100.384C60.735 100.384 59.9883 100.208 59.327 99.856C58.6763 99.504 58.1803 99.024 57.839 98.416L59.071 97.136C59.3697 97.552 59.743 97.8827 60.191 98.128C60.639 98.3733 61.103 98.496 61.583 98.496C62.159 98.496 62.6283 98.3253 62.991 97.984C63.3643 97.632 63.551 97.168 63.551 96.592C63.551 96.0373 63.375 95.5893 63.023 95.248C62.6817 94.9067 62.2443 94.736 61.711 94.736C61.359 94.736 61.0283 94.816 60.719 94.976C60.4203 95.136 60.1803 95.3547 59.999 95.632H58.127C58.127 95.6 58.1483 95.4827 58.191 95.28C58.2337 95.0667 58.287 94.8 58.351 94.48C58.415 94.1493 58.4843 93.7867 58.559 93.392C58.6337 92.9867 58.7137 92.576 58.799 92.16C58.991 91.1787 59.2043 90.08 59.439 88.864H65.039V90.816H60.991L60.527 93.36C60.655 93.2213 60.8417 93.1093 61.087 93.024C61.343 92.9387 61.6523 92.896 62.015 92.896Z" fill="#464646"/>
</svg>
