<svg width="156" height="118" viewBox="0 0 156 118" fill="none" xmlns="http://www.w3.org/2000/svg">
<rect width="156" height="118" fill="white"/>
<path d="M41 43H19C17.3125 43 16 44.375 16 46V68C16 69.6875 17.3125 71 19 71H41C42.625 71 44 69.6875 44 68V46C44 44.375 42.625 43 41 43ZM31.1875 64.875C31.1875 67.5625 29.625 68.8125 27.25 68.8125C25.1875 68.8125 23.9375 67.75 23.3125 66.4375L25.5 65.125C25.875 65.875 26.25 66.5 27.1875 66.5C28 66.5 28.5625 66.125 28.5625 64.8125V55.875H31.1875V64.875ZM37.4375 68.8125C35 68.8125 33.4375 67.6875 32.625 66.125L34.8125 64.9375C35.375 65.8125 36.0625 66.5 37.375 66.5C38.4375 66.5 39.1875 65.9375 39.1875 65.1875C39.1875 64.3125 38.4375 64 37.25 63.4375L36.5625 63.1875C34.6875 62.375 33.4375 61.375 33.4375 59.1875C33.4375 57.25 34.9375 55.75 37.3125 55.75C38.9375 55.75 40.1875 56.3125 41 57.8125L39 59.125C38.5 58.375 38.0625 58 37.25 58C36.5 58 36 58.5 36 59.125C36 59.9375 36.5 60.25 37.625 60.75L38.3125 61.0625C40.5625 62 41.8125 63 41.8125 65.1875C41.8125 67.5625 39.9375 68.8125 37.4375 68.8125Z" fill="#2A7AE4"/>
<path d="M16.608 95.68C16.7573 95.7867 17.008 95.904 17.36 96.032C17.712 96.16 18.1173 96.224 18.576 96.224C19.024 96.224 19.3813 96.1493 19.648 96C19.9147 95.84 20.1173 95.6 20.256 95.28C20.3947 94.96 20.4853 94.5653 20.528 94.096C20.5707 93.616 20.592 93.056 20.592 92.416V86.64H22.8V92.416C22.8 93.28 22.752 94.0693 22.656 94.784C22.5707 95.488 22.3787 96.0907 22.08 96.592C21.792 97.0933 21.3707 97.4827 20.816 97.76C20.2613 98.0373 19.5147 98.176 18.576 98.176C17.616 98.176 16.7947 97.9413 16.112 97.472L16.608 95.68ZM27.014 98.16C26.6087 98.16 26.23 98.096 25.878 97.968C25.526 97.8293 25.222 97.6427 24.966 97.408C24.71 97.1627 24.5073 96.88 24.358 96.56C24.2193 96.24 24.15 95.888 24.15 95.504C24.15 95.1093 24.2353 94.7467 24.406 94.416C24.5873 94.0747 24.8327 93.7867 25.142 93.552C25.462 93.3173 25.8407 93.136 26.278 93.008C26.7153 92.8693 27.1953 92.8 27.718 92.8C28.0913 92.8 28.454 92.832 28.806 92.896C29.1687 92.96 29.4887 93.0507 29.766 93.168V92.688C29.766 92.1333 29.606 91.7067 29.286 91.408C28.9767 91.1093 28.5127 90.96 27.894 90.96C27.446 90.96 27.0087 91.04 26.582 91.2C26.1553 91.36 25.718 91.5947 25.27 91.904L24.614 90.544C25.6913 89.8293 26.854 89.472 28.102 89.472C29.3073 89.472 30.2407 89.7707 30.902 90.368C31.574 90.9547 31.91 91.808 31.91 92.928V95.536C31.91 95.76 31.9473 95.92 32.022 96.016C32.1073 96.112 32.2407 96.1653 32.422 96.176V98C32.0593 98.0747 31.7447 98.112 31.478 98.112C31.0727 98.112 30.758 98.0213 30.534 97.84C30.3207 97.6587 30.1873 97.4187 30.134 97.12L30.086 96.656C29.7127 97.1467 29.2593 97.52 28.726 97.776C28.1927 98.032 27.622 98.16 27.014 98.16ZM27.622 96.592C27.9847 96.592 28.326 96.528 28.646 96.4C28.9767 96.272 29.2327 96.1013 29.414 95.888C29.6487 95.7067 29.766 95.504 29.766 95.28V94.32C29.51 94.224 29.2327 94.1493 28.934 94.096C28.6353 94.032 28.3473 94 28.07 94C27.5153 94 27.062 94.128 26.71 94.384C26.358 94.6293 26.182 94.944 26.182 95.328C26.182 95.6907 26.3207 95.9947 26.598 96.24C26.8753 96.4747 27.2167 96.592 27.622 96.592ZM35.9508 98L32.8628 89.616H35.0707L37.1988 96.256L39.3428 89.616H41.3588L38.2708 98H35.9508ZM44.5609 98.16C44.1555 98.16 43.7769 98.096 43.4249 97.968C43.0729 97.8293 42.7689 97.6427 42.5129 97.408C42.2569 97.1627 42.0542 96.88 41.9049 96.56C41.7662 96.24 41.6969 95.888 41.6969 95.504C41.6969 95.1093 41.7822 94.7467 41.9529 94.416C42.1342 94.0747 42.3795 93.7867 42.6889 93.552C43.0089 93.3173 43.3875 93.136 43.8249 93.008C44.2622 92.8693 44.7422 92.8 45.2649 92.8C45.6382 92.8 46.0009 92.832 46.3529 92.896C46.7155 92.96 47.0355 93.0507 47.3129 93.168V92.688C47.3129 92.1333 47.1529 91.7067 46.8329 91.408C46.5235 91.1093 46.0595 90.96 45.4409 90.96C44.9929 90.96 44.5555 91.04 44.1289 91.2C43.7022 91.36 43.2649 91.5947 42.8169 91.904L42.1609 90.544C43.2382 89.8293 44.4009 89.472 45.6489 89.472C46.8542 89.472 47.7875 89.7707 48.4489 90.368C49.1209 90.9547 49.4569 91.808 49.4569 92.928V95.536C49.4569 95.76 49.4942 95.92 49.5689 96.016C49.6542 96.112 49.7875 96.1653 49.9689 96.176V98C49.6062 98.0747 49.2915 98.112 49.0249 98.112C48.6195 98.112 48.3049 98.0213 48.0809 97.84C47.8675 97.6587 47.7342 97.4187 47.6809 97.12L47.6329 96.656C47.2595 97.1467 46.8062 97.52 46.2729 97.776C45.7395 98.032 45.1689 98.16 44.5609 98.16ZM45.1689 96.592C45.5315 96.592 45.8729 96.528 46.1929 96.4C46.5235 96.272 46.7795 96.1013 46.9609 95.888C47.1955 95.7067 47.3129 95.504 47.3129 95.28V94.32C47.0569 94.224 46.7795 94.1493 46.4809 94.096C46.1822 94.032 45.8942 94 45.6169 94C45.0622 94 44.6089 94.128 44.2569 94.384C43.9049 94.6293 43.7289 94.944 43.7289 95.328C43.7289 95.6907 43.8675 95.9947 44.1449 96.24C44.4222 96.4747 44.7635 96.592 45.1689 96.592ZM54.6284 98.16C53.9244 98.16 53.2364 98.048 52.5644 97.824C51.8924 97.6 51.3164 97.28 50.8364 96.864L51.6364 95.52C52.1484 95.8827 52.6444 96.16 53.1244 96.352C53.615 96.5333 54.1004 96.624 54.5804 96.624C55.007 96.624 55.343 96.544 55.5884 96.384C55.8337 96.224 55.9564 95.9947 55.9564 95.696C55.9564 95.3973 55.8124 95.1787 55.5244 95.04C55.2364 94.9013 54.767 94.7413 54.1164 94.56C53.5724 94.4107 53.1084 94.2667 52.7244 94.128C52.3404 93.9893 52.031 93.8347 51.7964 93.664C51.5617 93.4827 51.391 93.28 51.2844 93.056C51.1777 92.8213 51.1244 92.544 51.1244 92.224C51.1244 91.7973 51.2044 91.4133 51.3644 91.072C51.535 90.7307 51.7697 90.4427 52.0684 90.208C52.367 89.9627 52.7137 89.776 53.1084 89.648C53.5137 89.52 53.951 89.456 54.4204 89.456C55.0497 89.456 55.6364 89.5467 56.1804 89.728C56.735 89.9093 57.2417 90.2027 57.7004 90.608L56.8364 91.904C56.4097 91.584 55.9937 91.3493 55.5884 91.2C55.1937 91.0507 54.799 90.976 54.4044 90.976C54.0417 90.976 53.7377 91.0507 53.4924 91.2C53.247 91.3493 53.1244 91.5893 53.1244 91.92C53.1244 92.0693 53.151 92.192 53.2044 92.288C53.2684 92.384 53.3644 92.4693 53.4924 92.544C53.6204 92.6187 53.7857 92.6933 53.9884 92.768C54.2017 92.832 54.463 92.9013 54.7724 92.976C55.3484 93.1253 55.839 93.2747 56.2444 93.424C56.6604 93.5733 56.9964 93.744 57.2524 93.936C57.519 94.128 57.711 94.352 57.8284 94.608C57.9564 94.8533 58.0204 95.152 58.0204 95.504C58.0204 96.3253 57.7164 96.976 57.1084 97.456C56.5004 97.9253 55.6737 98.16 54.6284 98.16ZM58.8855 93.808C58.8855 93.2213 58.9868 92.6667 59.1895 92.144C59.3922 91.6213 59.6855 91.1627 60.0695 90.768C60.4535 90.3733 60.9175 90.0587 61.4615 89.824C62.0055 89.5893 62.6188 89.472 63.3015 89.472C64.2188 89.472 64.9975 89.6693 65.6375 90.064C66.2882 90.4587 66.7735 90.976 67.0935 91.616L64.9975 92.256C64.8162 91.9467 64.5762 91.712 64.2775 91.552C63.9788 91.3813 63.6482 91.296 63.2855 91.296C62.9762 91.296 62.6882 91.36 62.4215 91.488C62.1548 91.6053 61.9202 91.776 61.7175 92C61.5255 92.2133 61.3708 92.4747 61.2535 92.784C61.1468 93.0933 61.0935 93.4347 61.0935 93.808C61.0935 94.1813 61.1522 94.5227 61.2695 94.832C61.3868 95.1413 61.5415 95.408 61.7335 95.632C61.9362 95.856 62.1708 96.032 62.4375 96.16C62.7042 96.2773 62.9868 96.336 63.2855 96.336C63.6695 96.336 64.0215 96.24 64.3415 96.048C64.6722 95.856 64.9015 95.6213 65.0295 95.344L67.1255 95.984C66.8375 96.624 66.3628 97.1467 65.7015 97.552C65.0402 97.9573 64.2455 98.16 63.3175 98.16C62.6348 98.16 62.0215 98.0427 61.4775 97.808C60.9335 97.5733 60.4695 97.2587 60.0855 96.864C59.7015 96.4587 59.4028 95.9947 59.1895 95.472C58.9868 94.9387 58.8855 94.384 58.8855 93.808ZM73.4368 91.472C72.7861 91.4827 72.2048 91.6107 71.6927 91.856C71.1808 92.0907 70.8128 92.448 70.5888 92.928V98H68.4448V89.616H70.4128V91.408C70.5621 91.12 70.7381 90.864 70.9408 90.64C71.1434 90.4053 71.3621 90.2027 71.5968 90.032C71.8314 89.8613 72.0661 89.7333 72.3008 89.648C72.5461 89.552 72.7808 89.504 73.0048 89.504C73.1221 89.504 73.2074 89.504 73.2608 89.504C73.3248 89.504 73.3834 89.5093 73.4368 89.52V91.472ZM74.6323 98V89.616H76.7763V98H74.6323ZM74.6323 88.448V86.32H76.7763V88.448H74.6323ZM83.7344 98.16C83.073 98.16 82.497 98.016 82.0064 97.728C81.5157 97.4293 81.1317 97.0293 80.8544 96.528V101.408H78.7104V89.616H80.5824V91.056C80.8917 90.5653 81.2917 90.1813 81.7824 89.904C82.273 89.616 82.8384 89.472 83.4784 89.472C84.0437 89.472 84.5664 89.5893 85.0464 89.824C85.5264 90.048 85.937 90.3573 86.2784 90.752C86.6304 91.136 86.9024 91.5947 87.0944 92.128C87.297 92.6507 87.3984 93.2053 87.3984 93.792C87.3984 94.4 87.3077 94.9707 87.1264 95.504C86.945 96.0373 86.689 96.5013 86.3584 96.896C86.0384 97.2907 85.6544 97.6 85.2064 97.824C84.7584 98.048 84.2677 98.16 83.7344 98.16ZM83.0144 96.336C83.3344 96.336 83.6277 96.2667 83.8944 96.128C84.1717 95.9893 84.4064 95.8027 84.5984 95.568C84.7904 95.3333 84.9397 95.0613 85.0464 94.752C85.153 94.4427 85.2064 94.1227 85.2064 93.792C85.2064 93.44 85.1477 93.1147 85.0304 92.816C84.913 92.5067 84.7477 92.24 84.5344 92.016C84.3317 91.792 84.0864 91.616 83.7984 91.488C83.521 91.36 83.217 91.296 82.8864 91.296C82.6837 91.296 82.4757 91.3333 82.2624 91.408C82.049 91.472 81.8517 91.568 81.6704 91.696C81.489 91.824 81.3237 91.9733 81.1744 92.144C81.0357 92.3147 80.929 92.5013 80.8544 92.704V94.672C81.0464 95.152 81.3397 95.552 81.7344 95.872C82.129 96.1813 82.5557 96.336 83.0144 96.336ZM93.7656 97.568C93.4776 97.696 93.1256 97.824 92.7096 97.952C92.2936 98.08 91.8563 98.144 91.3976 98.144C91.099 98.144 90.8163 98.1067 90.5496 98.032C90.2936 97.9573 90.0643 97.84 89.8616 97.68C89.6696 97.5093 89.515 97.296 89.3976 97.04C89.2803 96.7733 89.2216 96.4533 89.2216 96.08V91.264H88.1176V89.616H89.2216V86.896H91.3656V89.616H93.1256V91.264H91.3656V95.36C91.3656 95.6587 91.4403 95.872 91.5896 96C91.7496 96.1173 91.9416 96.176 92.1656 96.176C92.3896 96.176 92.6083 96.1387 92.8216 96.064C93.035 95.9893 93.2056 95.9253 93.3336 95.872L93.7656 97.568Z" fill="#464646"/>
</svg>
